<?xml version="1.0" encoding="UTF-8"?>
<svg version="1.1" xmlns="http://www.w3.org/2000/svg" width="793" height="740">
<path d="M0 0 C4.7090228 0.00459885 9.41803192 -0.00249538 14.12705183 -0.00795984 C23.3114966 -0.01677763 32.49590838 -0.0149662 41.68035436 -0.00913456 C49.15561121 -0.00458774 56.63085893 -0.0040181 64.10611677 -0.00618219 C65.71188616 -0.00664189 65.71188616 -0.00664189 67.35009533 -0.00711088 C69.5259219 -0.00775043 71.70174847 -0.00839886 73.87757504 -0.00905606 C94.20278025 -0.01473705 114.52796732 -0.0082367 134.85316956 0.00254467 C152.23167365 0.01147813 169.61015101 0.00992546 186.98865461 0.00070715 C207.24920385 -0.01003514 227.50973725 -0.01418793 247.77028894 -0.00806832 C249.93738699 -0.00743133 252.10448503 -0.00680259 254.27158308 -0.00618219 C255.33738649 -0.00587364 256.4031899 -0.00556509 257.50129038 -0.00524719 C264.95347276 -0.00353208 272.40564496 -0.00640956 279.85782576 -0.0111413 C288.95969642 -0.01679438 298.06153266 -0.01514185 307.16339946 -0.00457981 C311.7927912 0.00061807 316.4221259 0.00283637 321.05151701 -0.00387812 C380.79031346 -0.0828663 436.1402064 6.23777351 480.82947493 49.86301184 C506.12602383 75.28479118 521.17939155 107.81236698 526.93884993 143.01144934 C527.05462385 143.71858068 527.17039778 144.42571203 527.28968 145.1542716 C529.06293554 157.05193973 529.33642257 169.05638857 529.21047354 181.06288862 C529.18686465 183.31392612 529.16996616 185.56493706 529.15459394 187.81604528 C529.13792446 190.24813954 529.12085939 192.68022384 529.10184288 195.11230099 C529.05526546 201.12228127 529.03027318 207.13208902 529.01776838 213.14223242 C529.01593385 214.02025843 529.01409931 214.89828444 529.01220918 215.8029173 C529.00513062 219.41383027 528.99882994 223.02474397 528.99311161 226.63565934 C528.97627498 236.8420985 528.93805924 247.04741902 528.83582258 257.2533927 C528.75435367 265.40002921 528.71894199 273.54540155 528.73733687 281.69244546 C528.74534601 285.99172022 528.73058469 290.28810973 528.65972853 294.58686781 C528.59367727 298.62588681 528.58908259 302.66044271 528.63034201 306.69974661 C528.63476131 308.17438165 528.61723869 309.64928461 528.57526159 311.12332869 C528.24633209 318.9452732 528.24633209 318.9452732 531.46917009 325.80684209 C534.10347774 328.25757672 536.93985596 330.24013384 539.97851133 332.15440416 C548.96046611 338.04954074 553.5766748 348.10270427 558.26160383 357.43918371 C559.11681046 359.11987416 560.01617463 360.77790004 560.91931868 362.43332434 C569.72672935 378.87382427 570.80798313 397.89445479 565.44275618 415.67551184 C560.28482465 430.4262319 550.22373453 439.79748436 538.18884993 449.26144934 C536.99720121 450.27743669 535.80878305 451.29725131 534.62634993 452.32394934 C532.18884993 454.26144934 532.18884993 454.26144934 530.18884993 454.26144934 C530.18553978 454.85869597 530.18222963 455.45594261 530.17881918 456.07128763 C530.09700175 470.71691462 530.0047275 485.36245117 529.90132284 500.00794077 C529.85155653 507.09087627 529.80511525 514.17380223 529.76697493 521.25681067 C529.73365793 527.44241875 529.69362066 533.62794382 529.64605987 539.81345934 C529.62118127 543.07768764 529.60029973 546.34185563 529.58550596 549.60614729 C529.47968957 572.17739372 528.72795641 594.29418729 523.18884993 616.26144934 C522.92829817 617.323234 522.92829817 617.323234 522.66248274 618.40646887 C516.48646454 643.05916996 504.21438061 665.48515618 487.18884993 684.26144934 C486.41670149 685.15348059 485.64455305 686.04551184 484.84900618 686.96457434 C457.35195625 718.47261748 416.50958646 736.03841693 375.36031723 740.04632759 C368.57217915 740.50676939 361.76240125 740.40592618 354.96173811 740.40189123 C353.21162118 740.40447825 351.46150484 740.40749235 349.7113893 740.41089463 C344.91938289 740.41892857 340.12739148 740.42075219 335.33537912 740.4214921 C330.15989423 740.42334901 324.98441702 740.43089963 319.8089366 740.43762732 C308.49849602 740.45118647 297.18805899 740.45723185 285.87761164 740.46163797 C278.80747036 740.46440502 271.73733044 740.46864326 264.66719007 740.47314215 C245.07042607 740.48533266 225.47366314 740.49563175 205.87689543 740.49901724 C203.9969202 740.49934659 203.9969202 740.49934659 202.07896568 740.49968259 C200.82273894 740.49990087 199.5665122 740.50011915 198.27221799 740.50034404 C195.72685051 740.5007875 193.18148303 740.50123406 190.63611555 740.50168371 C189.3735395 740.50190514 188.11096345 740.50212657 186.81012753 740.50235471 C166.37198602 740.50629903 145.93388026 740.52374284 125.49575254 740.54704323 C104.48387773 740.57080318 83.47202081 740.58322123 62.46013236 740.58438516 C50.674309 740.58529942 38.88853218 740.59098858 27.10272169 740.60920477 C17.0626031 740.62466867 7.02254544 740.6296894 -3.0175828 740.62146667 C-8.13219669 740.61758206 -13.24668813 740.61838155 -18.36128664 740.63252401 C-65.30846761 740.75470897 -108.55411232 734.8004909 -146.81115007 705.26144934 C-147.77665789 704.5202384 -148.7421657 703.77902746 -149.73693132 703.01535559 C-183.92999447 675.88337762 -204.22382336 635.66430433 -209.40989256 592.6404767 C-211.34755013 574.147447 -211.10464631 555.59639017 -211.08725846 537.02750242 C-211.08476394 532.02466602 -211.09383865 527.02184734 -211.10129595 522.0190177 C-211.11396912 512.24902072 -211.11584601 502.47905132 -211.11349569 492.7090475 C-211.11170443 484.76023806 -211.11347936 476.81143691 -211.11772013 468.86262846 C-211.11861291 467.1583606 -211.11861291 467.1583606 -211.11952373 465.41966308 C-211.12073562 463.11071492 -211.12194975 460.80176675 -211.12316611 458.49281859 C-211.13401272 436.89779271 -211.13189255 415.30278249 -211.12578126 393.70775574 C-211.12061191 373.99927284 -211.1318732 354.29083936 -211.15087948 334.58236624 C-211.17030044 314.28649482 -211.1785066 293.99064674 -211.17475623 273.69476599 C-211.17285099 262.32378936 -211.17526554 250.9528548 -211.18947077 239.58188581 C-211.20143982 229.90408658 -211.20272777 220.22635535 -211.1906806 210.54855508 C-211.18483112 205.62195455 -211.18358226 200.69547803 -211.195683 195.76888609 C-211.30937405 146.00016558 -204.71183855 97.17116443 -170.12804461 58.72971106 C-168.89031504 57.34971373 -167.67603051 55.94879027 -166.46349382 54.54660559 C-136.37439684 20.10599898 -92.49254645 4.00323963 -47.78780508 0.88509917 C-31.87181843 -0.11229512 -15.94051484 -0.0231202 0 0 Z " fill="#1C987D" transform="translate(210.81115007400513,-0.26144933700561523)"/>
<path d="M0 0 C4.7090228 0.00459885 9.41803192 -0.00249538 14.12705183 -0.00795984 C23.3114966 -0.01677763 32.49590838 -0.0149662 41.68035436 -0.00913456 C49.15561121 -0.00458774 56.63085893 -0.0040181 64.10611677 -0.00618219 C65.71188616 -0.00664189 65.71188616 -0.00664189 67.35009533 -0.00711088 C69.5259219 -0.00775043 71.70174847 -0.00839886 73.87757504 -0.00905606 C94.20278025 -0.01473705 114.52796732 -0.0082367 134.85316956 0.00254467 C152.23167365 0.01147813 169.61015101 0.00992546 186.98865461 0.00070715 C207.24920385 -0.01003514 227.50973725 -0.01418793 247.77028894 -0.00806832 C249.93738699 -0.00743133 252.10448503 -0.00680259 254.27158308 -0.00618219 C255.33738649 -0.00587364 256.4031899 -0.00556509 257.50129038 -0.00524719 C264.95347276 -0.00353208 272.40564496 -0.00640956 279.85782576 -0.0111413 C288.95969642 -0.01679438 298.06153266 -0.01514185 307.16339946 -0.00457981 C311.7927912 0.00061807 316.4221259 0.00283637 321.05151701 -0.00387812 C380.79031346 -0.0828663 436.1402064 6.23777351 480.82947493 49.86301184 C506.12602383 75.28479118 521.17939155 107.81236698 526.93884993 143.01144934 C527.05462385 143.71858068 527.17039778 144.42571203 527.28968 145.1542716 C529.06293554 157.05193973 529.33642257 169.05638857 529.21047354 181.06288862 C529.18686465 183.31392612 529.16996616 185.56493706 529.15459394 187.81604528 C529.13792446 190.24813954 529.12085939 192.68022384 529.10184288 195.11230099 C529.05526546 201.12228127 529.03027318 207.13208902 529.01776838 213.14223242 C529.01593385 214.02025843 529.01409931 214.89828444 529.01220918 215.8029173 C529.00513062 219.41383027 528.99882994 223.02474397 528.99311161 226.63565934 C528.97627498 236.8420985 528.93805924 247.04741902 528.83582258 257.2533927 C528.75435367 265.40002921 528.71894199 273.54540155 528.73733687 281.69244546 C528.74534601 285.99172022 528.73058469 290.28810973 528.65972853 294.58686781 C528.59367727 298.62588681 528.58908259 302.66044271 528.63034201 306.69974661 C528.63476131 308.17438165 528.61723869 309.64928461 528.57526159 311.12332869 C528.24633209 318.9452732 528.24633209 318.9452732 531.46917009 325.80684209 C534.10347774 328.25757672 536.93985596 330.24013384 539.97851133 332.15440416 C548.96046611 338.04954074 553.5766748 348.10270427 558.26160383 357.43918371 C559.11681046 359.11987416 560.01617463 360.77790004 560.91931868 362.43332434 C569.72672935 378.87382427 570.80798313 397.89445479 565.44275618 415.67551184 C560.28482465 430.4262319 550.22373453 439.79748436 538.18884993 449.26144934 C536.99720121 450.27743669 535.80878305 451.29725131 534.62634993 452.32394934 C532.18884993 454.26144934 532.18884993 454.26144934 530.18884993 454.26144934 C530.18553978 454.85869597 530.18222963 455.45594261 530.17881918 456.07128763 C530.09700175 470.71691462 530.0047275 485.36245117 529.90132284 500.00794077 C529.85155653 507.09087627 529.80511525 514.17380223 529.76697493 521.25681067 C529.73365793 527.44241875 529.69362066 533.62794382 529.64605987 539.81345934 C529.62118127 543.07768764 529.60029973 546.34185563 529.58550596 549.60614729 C529.47968957 572.17739372 528.72795641 594.29418729 523.18884993 616.26144934 C522.92829817 617.323234 522.92829817 617.323234 522.66248274 618.40646887 C516.48646454 643.05916996 504.21438061 665.48515618 487.18884993 684.26144934 C486.41670149 685.15348059 485.64455305 686.04551184 484.84900618 686.96457434 C457.35195625 718.47261748 416.50958646 736.03841693 375.36031723 740.04632759 C368.57217915 740.50676939 361.76240125 740.40592618 354.96173811 740.40189123 C353.21162118 740.40447825 351.46150484 740.40749235 349.7113893 740.41089463 C344.91938289 740.41892857 340.12739148 740.42075219 335.33537912 740.4214921 C330.15989423 740.42334901 324.98441702 740.43089963 319.8089366 740.43762732 C308.49849602 740.45118647 297.18805899 740.45723185 285.87761164 740.46163797 C278.80747036 740.46440502 271.73733044 740.46864326 264.66719007 740.47314215 C245.07042607 740.48533266 225.47366314 740.49563175 205.87689543 740.49901724 C203.9969202 740.49934659 203.9969202 740.49934659 202.07896568 740.49968259 C200.82273894 740.49990087 199.5665122 740.50011915 198.27221799 740.50034404 C195.72685051 740.5007875 193.18148303 740.50123406 190.63611555 740.50168371 C189.3735395 740.50190514 188.11096345 740.50212657 186.81012753 740.50235471 C166.37198602 740.50629903 145.93388026 740.52374284 125.49575254 740.54704323 C104.48387773 740.57080318 83.47202081 740.58322123 62.46013236 740.58438516 C50.674309 740.58529942 38.88853218 740.59098858 27.10272169 740.60920477 C17.0626031 740.62466867 7.02254544 740.6296894 -3.0175828 740.62146667 C-8.13219669 740.61758206 -13.24668813 740.61838155 -18.36128664 740.63252401 C-65.30846761 740.75470897 -108.55411232 734.8004909 -146.81115007 705.26144934 C-147.77665789 704.5202384 -148.7421657 703.77902746 -149.73693132 703.01535559 C-183.92999447 675.88337762 -204.22382336 635.66430433 -209.40989256 592.6404767 C-211.34755013 574.147447 -211.10464631 555.59639017 -211.08725846 537.02750242 C-211.08476394 532.02466602 -211.09383865 527.02184734 -211.10129595 522.0190177 C-211.11396912 512.24902072 -211.11584601 502.47905132 -211.11349569 492.7090475 C-211.11170443 484.76023806 -211.11347936 476.81143691 -211.11772013 468.86262846 C-211.11861291 467.1583606 -211.11861291 467.1583606 -211.11952373 465.41966308 C-211.12073562 463.11071492 -211.12194975 460.80176675 -211.12316611 458.49281859 C-211.13401272 436.89779271 -211.13189255 415.30278249 -211.12578126 393.70775574 C-211.12061191 373.99927284 -211.1318732 354.29083936 -211.15087948 334.58236624 C-211.17030044 314.28649482 -211.1785066 293.99064674 -211.17475623 273.69476599 C-211.17285099 262.32378936 -211.17526554 250.9528548 -211.18947077 239.58188581 C-211.20143982 229.90408658 -211.20272777 220.22635535 -211.1906806 210.54855508 C-211.18483112 205.62195455 -211.18358226 200.69547803 -211.195683 195.76888609 C-211.30937405 146.00016558 -204.71183855 97.17116443 -170.12804461 58.72971106 C-168.89031504 57.34971373 -167.67603051 55.94879027 -166.46349382 54.54660559 C-136.37439684 20.10599898 -92.49254645 4.00323963 -47.78780508 0.88509917 C-31.87181843 -0.11229512 -15.94051484 -0.0231202 0 0 Z M-133.81115007 72.26144934 C-134.48790789 72.86473059 -135.1646657 73.46801184 -135.86193132 74.08957434 C-160.93517309 97.78648064 -176.33833495 134.11732272 -178.81115007 168.26144934 C-178.95859878 173.6116691 -178.95498898 178.96032891 -178.95159197 184.31204748 C-178.95417876 185.94651969 -178.95719279 187.58099126 -178.96059537 189.21546197 C-178.96863208 193.6924145 -178.97045308 198.16935096 -178.97119284 202.64630985 C-178.97304928 207.48095866 -178.98059969 212.31559925 -178.98732805 217.15024328 C-179.00088947 227.71689793 -179.00693303 238.28354877 -179.01133871 248.85021067 C-179.01410554 255.45549935 -179.01834376 262.06078658 -179.02284288 268.66607428 C-179.03503401 286.97433012 -179.04533277 305.28258481 -179.04871798 323.59084463 C-179.04893754 324.76185502 -179.04915711 325.9328654 -179.04938333 327.13936095 C-179.04960161 328.3130927 -179.04981988 329.48682446 -179.05004478 330.69612384 C-179.05048823 333.07434432 -179.0509348 335.4525648 -179.05138445 337.83078527 C-179.05160588 339.01045192 -179.05182731 340.19011857 -179.05205545 341.40553269 C-179.05599932 360.49937699 -179.07344152 379.59318304 -179.09674397 398.68701258 C-179.12050598 418.31684584 -179.13292207 437.94665994 -179.13408589 457.57650781 C-179.13500007 468.58710248 -179.14068708 479.59764733 -179.15890551 490.60822821 C-179.17437225 499.98854246 -179.17938851 509.3687915 -179.1711674 518.74911609 C-179.1672837 523.52740813 -179.1680777 528.3055691 -179.18222475 533.08384466 C-179.40588656 565.69651952 -179.40588656 565.69651952 -173.31115007 597.63644934 C-172.94255877 598.89799841 -172.94255877 598.89799841 -172.56652117 600.18503332 C-166.27713619 620.43491891 -155.57287928 638.27490724 -141.81115007 654.26144934 C-141.01708757 655.1908634 -140.22302507 656.12027746 -139.40490007 657.07785559 C-133.71680008 663.54896935 -127.65112276 669.03486004 -120.81115007 674.26144934 C-119.96036882 674.92789465 -119.10958757 675.59433996 -118.23302507 676.28098059 C-95.53572543 693.50782328 -66.22942944 705.36368716 -37.50515985 705.3928771 C-36.81246537 705.39492974 -36.11977089 705.39698237 -35.40608567 705.3990972 C-33.09769897 705.40472689 -30.7893727 705.40331498 -28.4809804 705.40189123 C-26.80398518 705.4044772 -25.12699058 705.407491 -23.44999683 705.41089463 C-18.85097746 705.41894094 -14.25197372 705.42075288 -9.65294814 705.4214921 C-4.68882201 705.42334683 0.27529609 705.43089636 5.23941755 705.43762732 C16.09104489 705.45119514 26.94266853 705.45723317 37.79430294 705.46163797 C44.57528051 705.46440347 51.35625665 705.46864143 58.13723326 705.47314215 C76.9258428 705.48533365 95.71445122 705.49563264 114.50306463 705.49901724 C116.30602909 705.49934659 116.30602909 705.49934659 118.14541707 705.49968259 C119.95261064 705.50001001 119.95261064 705.50001001 121.79631317 705.50034404 C124.23754287 705.5007875 126.67877257 705.50123406 129.12000227 705.50168371 C130.3309275 705.50190514 131.54185272 705.50212657 132.78947265 705.50235471 C152.39626235 705.50629993 172.00301481 705.52374608 191.60979013 705.54704323 C211.7582529 705.57078996 231.90669701 705.58322063 252.05517399 705.58438516 C263.36023478 705.58530014 274.66524708 705.59100775 285.97029448 705.60920477 C295.5999493 705.62465074 305.22954066 705.62969983 314.85920553 705.62146667 C319.76673465 705.61757582 324.67413612 705.61841268 329.5816493 705.63252401 C334.08627549 705.64535761 338.59067934 705.64398347 343.09530564 705.6319333 C344.71314403 705.62999252 346.33099869 705.63297852 347.94881432 705.64177766 C388.6233301 705.84875257 425.86905523 689.07341233 454.74353743 660.72971106 C471.98659658 643.21286008 484.7783438 621.21055531 491.68884993 597.63644934 C491.90766829 596.90023352 492.12648664 596.1640177 492.35193586 595.40549231 C497.69057818 575.47203082 497.47560123 555.45413609 497.17162657 535.02288008 C497.09676786 529.82128061 497.06175918 524.61984987 497.03513288 519.41780615 C497.03043096 518.53265626 497.02572904 517.64750638 497.02088463 516.73553377 C497.01134401 514.92862315 497.00188443 513.12171209 496.99250436 511.31480062 C496.92808716 499.24097111 496.8371276 487.16868287 496.64392805 475.09616613 C496.51302637 466.89744787 496.44318864 458.70064554 496.44232357 450.50085109 C496.43944553 446.18040098 496.40646973 441.86514503 496.29793882 437.54595137 C495.61537335 409.30589744 495.61537335 409.30589744 501.88239241 402.20941687 C505.33840162 399.0835729 509.05687492 396.7929248 513.13392973 394.57002592 C517.39646861 391.8556341 520.36601327 387.94452432 522.56384993 383.44894934 C523.94416287 376.40935334 523.9380654 370.5716894 520.55213118 364.14816809 C516.89482801 359.08662817 511.94284597 355.32220203 507.06384993 351.51144934 C506.44381086 351.0177384 505.8237718 350.52402746 505.18494368 350.01535559 C502.54271202 347.9413458 500.39991557 346.33180455 497.18884993 345.26144934 C497.1916153 344.36767458 497.19438068 343.47389982 497.19722986 342.55304098 C497.26371904 320.72334484 497.31324149 298.89366636 497.34428644 277.06388998 C497.35970172 266.5068218 497.38068812 255.94982155 497.41516829 245.39279699 C497.44523521 236.18254826 497.46446363 226.97234876 497.47111541 217.7620523 C497.47499862 212.89321572 497.48401091 208.02451991 497.5060401 203.15572882 C497.52667973 198.55598724 497.5326294 193.95644195 497.52817297 189.35665846 C497.52898608 187.68476364 497.53478581 186.01286097 497.54646635 184.34100676 C497.65132924 168.53185813 496.04755596 152.69623996 491.43884993 137.51144934 C491.05370222 136.21279943 491.05370222 136.21279943 490.66077375 134.88791418 C478.85168656 96.33879165 451.3403561 65.38921255 416.15759993 46.32785559 C394.02123343 34.64417859 370.52862794 29.77561529 345.6652751 29.86704016 C343.98050997 29.86213593 342.29574821 29.85593915 340.61099201 29.84858227 C336.03663014 29.83235329 331.46244252 29.83446544 326.88806212 29.83995724 C321.93282288 29.84264877 316.9776279 29.82805607 312.02240705 29.81586218 C302.33493646 29.79489409 292.64752582 29.79026239 282.9600352 29.79205006 C275.07737672 29.79336219 267.1947368 29.78953065 259.31208181 29.782125 C257.03390012 29.78002559 254.75571843 29.777928 252.47753674 29.77583218 C250.77618024 29.77426688 250.77618024 29.77426688 249.0404529 29.77266997 C227.62854084 29.75380195 206.21666309 29.75480707 184.80474616 29.7616393 C165.26471639 29.7672107 145.7248179 29.74640027 126.1848188 29.71327883 C106.07102625 29.67945223 85.95729642 29.66438474 65.84347492 29.66899586 C54.57128773 29.67123169 43.2992218 29.66612804 32.02705908 29.64110327 C22.42854688 29.61997377 12.83022242 29.61661262 3.2317022 29.63540286 C-1.65456369 29.64448987 -6.54048064 29.64592297 -11.42671824 29.62504721 C-59.25324035 29.43436273 -97.72679032 39.79161061 -133.81115007 72.26144934 Z " fill="#000000" transform="translate(210.81115007400513,-0.26144933700561523)"/>
<path d="M0 0 C0.85980469 -0.0515625 1.71960938 -0.103125 2.60546875 -0.15625 C11.3239907 1.62780809 18.81560664 8.58310308 25.6875 13.9375 C27.53458006 15.36142482 29.38225099 16.78458345 31.23046875 18.20703125 C32.15907715 18.9232666 33.08768555 19.63950195 34.04443359 20.37744141 C38.33343321 23.66625449 42.66688279 26.89468064 47 30.125 C53.37313216 34.8836635 59.68001041 39.71541376 65.9375 44.625 C71.82432547 49.24002831 77.79227235 53.70897586 83.875 58.0625 C90.02060289 62.46192535 96.10868817 66.92493983 102.125 71.5 C103.17409546 72.29192749 103.17409546 72.29192749 104.24438477 73.09985352 C111.24614501 78.45555282 117.74253734 83.79922376 119.19921875 92.921875 C119.50710303 99.75902942 117.99911161 105.92258265 113.37719727 111.11132812 C109.20233705 115.41826294 104.6871877 119.06149833 99.875 122.625 C94.08239861 126.98511784 88.36436378 131.41230644 82.75 136 C82.09604248 136.53431641 81.44208496 137.06863281 80.76831055 137.61914062 C79.44668152 138.70078408 78.12563579 139.78314066 76.80517578 140.86621094 C73.43858429 143.62646949 70.06418068 146.37709739 66.6875 149.125 C65.68964478 149.93710937 65.68964478 149.93710937 64.67163086 150.765625 C59.85470057 154.67631825 54.98828664 158.51918534 50.09887695 162.33862305 C45.64993339 165.82196292 41.25554069 169.36863997 36.875 172.9375 C36.21121338 173.47681152 35.54742676 174.01612305 34.86352539 174.57177734 C31.46879165 177.33089961 28.0836957 180.10077218 24.7109375 182.88671875 C23.39081733 183.96638104 22.07051184 185.04581679 20.75 186.125 C20.15517822 186.62185303 19.56035645 187.11870605 18.94750977 187.63061523 C12.31760494 193.01992353 6.29785864 195.09340719 -2.25 194.84765625 C-7.99711678 194.16747886 -12.16420059 191.93743721 -16 187.625 C-20.80317904 180.76331566 -22.05151153 175.82371675 -21.1875 167.5 C-18.16694604 157.01690096 -9.397057 150.86174382 -1.1015625 144.515625 C3.12567234 141.28113355 7.25270368 137.92914509 11.375 134.5625 C15.21842026 131.42726164 15.21842026 131.42726164 17.13330078 129.87158203 C18.64937941 128.63323807 20.15173405 127.37813819 21.65234375 126.12109375 C23.8125 124.5 23.8125 124.5 25.8125 124.5 C25.8125 123.84 25.8125 123.18 25.8125 122.5 C-27.9775 122.5 -81.7675 122.5 -137.1875 122.5 C-137.1875 144.28 -137.1875 166.06 -137.1875 188.5 C-141.63421182 197.39342365 -145.09570833 201.98835 -154.1875 205.5 C-157.06138678 205.86785333 -159.54155976 206.0498037 -162.40063477 206.01898193 C-163.58082561 206.03023381 -163.58082561 206.03023381 -164.7848587 206.041713 C-167.39981538 206.06188118 -170.01389593 206.05390921 -172.62890625 206.04589844 C-174.5118444 206.05463938 -176.39477513 206.06512698 -178.2776947 206.07722473 C-183.37422519 206.10504141 -188.47051278 206.10849037 -193.56710815 206.10750484 C-198.89896052 206.11063765 -204.2307041 206.13626357 -209.5625 206.15948486 C-219.65224123 206.20002011 -229.74191787 206.22037979 -239.83172798 206.23345876 C-251.32147469 206.24933715 -262.81111162 206.28775637 -274.3007946 206.32805204 C-297.92965954 206.41041716 -321.55852142 206.46453047 -345.1875 206.5 C-342.67398807 208.54787244 -340.15935132 210.59435927 -337.64453125 212.640625 C-336.942677 213.21248535 -336.24082275 213.7843457 -335.5177002 214.37353516 C-331.00478408 218.04426589 -326.45959819 221.66925607 -321.875 225.25 C-315.90929366 229.91685053 -310.02119841 234.6685253 -304.1875 239.5 C-303.48496094 240.06589844 -302.78242188 240.63179687 -302.05859375 241.21484375 C-297.4390794 245.00496722 -294.4222531 248.50876324 -293.1875 254.5 C-292.51050902 261.64724901 -292.76106849 267.63930577 -297.1875 273.5 C-302.33991847 279.0470718 -306.91029321 282.10396233 -314.5625 282.8125 C-327.86429685 281.66579337 -337.89832195 271.00143922 -347.71655273 262.84643555 C-352.15490226 259.16048167 -356.63277844 255.54094786 -361.1875 252 C-366.42888282 247.92118238 -371.57267602 243.73633022 -376.6875 239.5 C-382.37612619 234.78929545 -388.11528054 230.16035975 -393.94042969 225.61987305 C-399.17838196 221.52931748 -404.33789201 217.34558456 -409.48388672 213.14013672 C-413.24611543 210.06698796 -417.0417488 207.04708191 -420.875 204.0625 C-426.4962301 199.57496337 -431.68685536 194.77919415 -432.55859375 187.328125 C-432.72886826 178.15333355 -431.77220443 173.35312975 -425.51953125 166.734375 C-419.75863849 161.26095194 -413.1645069 156.7268557 -406.75341797 152.05615234 C-401.14937102 147.97016094 -395.6409872 143.78449563 -390.1875 139.5 C-384.09862074 134.72202769 -377.93625144 130.06686119 -371.6875 125.5 C-365.29507193 120.82752538 -358.98759278 116.06488237 -352.75 111.1875 C-352.00097412 110.60218506 -351.25194824 110.01687012 -350.48022461 109.41381836 C-349.39173218 108.56315796 -349.39173218 108.56315796 -348.28125 107.6953125 C-342.97422222 103.54827739 -337.63583886 99.46100498 -332.1875 95.5 C-331.2903125 94.80648437 -330.393125 94.11296875 -329.46875 93.3984375 C-322.4747215 88.35389395 -316.73418804 87.13652059 -308.1875 88.5 C-301.47124531 90.315505 -297.10708805 94.9192015 -293.1875 100.5 C-290.61377684 105.87124832 -290.15629865 111.25982926 -291.95703125 116.91796875 C-296.99434129 128.39876373 -308.08952778 135.07645443 -317.859375 142.2890625 C-323.19001703 146.22708042 -328.43944679 150.26983663 -333.69165039 154.31152344 C-334.70473267 155.08931152 -334.70473267 155.08931152 -335.73828125 155.8828125 C-336.33294189 156.34059082 -336.92760254 156.79836914 -337.5402832 157.27001953 C-339.05185976 158.39871713 -340.61785041 159.45356694 -342.1875 160.5 C-289.3875 160.83 -236.5875 161.16 -182.1875 161.5 C-182.1875 139.06 -182.1875 116.62 -182.1875 93.5 C-174.56898528 81.31037645 -174.56898528 81.31037645 -167.1875 78.5 C-164.44980569 78.30268949 -161.81338692 78.21465222 -159.07574463 78.2215271 C-158.25153291 78.2157347 -157.42732118 78.2099423 -156.57813334 78.20397437 C-153.81279159 78.18695164 -151.0476165 78.18409591 -148.28222656 78.18115234 C-146.301362 78.17185574 -144.32050136 78.16168747 -142.33964539 78.15071106 C-136.95783083 78.12336685 -131.5760425 78.10824853 -126.19417667 78.09528303 C-120.571376 78.07967184 -114.94862906 78.05287522 -109.3258667 78.0272522 C-98.67643872 77.98042875 -88.02700067 77.94370189 -77.37752223 77.91057932 C-65.25428957 77.87238313 -53.13111084 77.82296642 -41.0079236 77.77259517 C-16.06782235 77.66922227 8.87231353 77.57997929 33.8125 77.5 C31.099996 75.42529445 28.38740754 73.35069935 25.67480469 71.27612305 C24.91255585 70.69310173 24.15030701 70.11008041 23.36495972 69.50939178 C18.41748744 65.7257124 13.46661834 61.94660086 8.50952148 58.17553711 C6.80449822 56.87741953 5.10099998 55.57729749 3.39868164 54.27563477 C-0.46781175 51.32032381 -4.33766217 48.37576406 -8.26953125 45.5078125 C-8.86733398 45.06590576 -9.46513672 44.62399902 -10.08105469 44.16870117 C-11.61133447 43.03979524 -13.15093049 41.92354633 -14.69140625 40.80859375 C-18.98963215 36.83323927 -21.89067612 31.78452652 -22.42578125 25.86328125 C-22.58713004 19.23099698 -22.4551501 13.82564692 -18.1875 8.5 C-12.89786941 3.55270459 -7.36549636 0.26111065 0 0 Z " fill="#FEFEFE" transform="translate(615.1875,279.5)"/>
<path d="M0 0 C7.37567424 -0.08450804 14.74953647 -0.16456495 22.12527466 -0.20700073 C25.56192305 -0.22789145 28.99815961 -0.2556719 32.43457031 -0.30175781 C65.98769031 -0.73957684 94.08484211 5.49126152 119 29.5625 C137.76630712 48.25755394 145.29518815 72.6932016 145.37109375 98.59375 C145.38008115 100.19218011 145.3892033 101.79060947 145.39845276 103.38903809 C145.41485317 106.72406037 145.42262711 110.0589833 145.42553711 113.39404297 C145.43092906 117.64401788 145.46868041 121.89304615 145.51428127 126.1427536 C145.54417183 129.43897845 145.55126316 132.73497777 145.55226326 136.03132629 C145.55643739 137.59727846 145.56875738 139.16323308 145.58978081 140.72904968 C145.71428068 150.79724862 145.19885666 159.3457776 138.03929138 167.13244629 C131.59207754 173.41693783 124.46800914 175.46371464 115.69107056 175.36914349 C114.48945354 175.37433579 114.48945354 175.37433579 113.26356143 175.37963298 C110.58648691 175.3875567 107.90995666 175.37412947 105.23291016 175.36076355 C103.29147306 175.36207219 101.35003647 175.3646997 99.40860271 175.36853105 C94.0792714 175.37523635 88.7501211 175.36324261 83.42081285 175.34819686 C77.67175191 175.33524149 71.92270118 175.33962561 66.17362976 175.34190369 C56.21481915 175.34347673 46.25606751 175.3340642 36.29727173 175.31719017 C21.89853319 175.29280905 7.49982317 175.2849958 -6.89893377 175.2812262 C-30.25994989 175.27466033 -53.62093457 175.25472124 -76.98193359 175.22631836 C-99.67496579 175.19875948 -122.36798958 175.17751137 -145.06103516 175.16479492 C-145.76069517 175.16440034 -146.46035518 175.16400576 -147.18121701 175.16359923 C-154.20757456 175.15964362 -161.23393217 175.15581619 -168.26028983 175.15208265 C-182.57342935 175.14447428 -196.88656831 175.13601052 -211.19970703 175.12702942 C-212.51422269 175.12620524 -213.82873836 175.12538106 -215.18308783 175.1245319 C-258.45540482 175.0970256 -301.72770312 175.04921094 -345 175 C-345 156.85 -345 138.7 -345 120 C-200.79 120 -56.58 120 92 120 C92.93795273 89.64483057 92.93795273 89.64483057 79 65 C69.50149924 57.61707441 59.4665528 53.99585136 47.45361328 53.79467773 C46.37829346 53.77449585 45.30297363 53.75431396 44.19506836 53.73352051 C43.08139893 53.71704468 41.96772949 53.70056885 40.8203125 53.68359375 C39.78447021 53.66494263 38.74862793 53.6462915 37.68139648 53.6270752 C33.82934721 53.55901829 29.97716406 53.49871629 26.125 53.4375 C17.50375 53.293125 8.8825 53.14875 0 53 C0 35.51 0 18.02 0 0 Z " fill="#FEFEFE" transform="translate(377,140)"/>
<path d="M0 0 C17.82 0 35.64 0 54 0 C51.62711583 14.23730501 51.62711583 14.23730501 49.375 20.875 C48.9891272 22.01763306 48.9891272 22.01763306 48.59545898 23.18334961 C44.66185619 34.30975964 38.5725609 43.96541002 31 53 C30.195625 54.03125 29.39125 55.0625 28.5625 56.125 C13.43142708 73.10132572 -8.6588472 83.78445627 -31 87 C-33.18317442 87.09697121 -35.36875491 87.14645544 -37.55404377 87.15936089 C-38.86322972 87.16936902 -40.17241566 87.17937715 -41.52127391 87.18968856 C-42.96733256 87.1958171 -44.41339172 87.20182774 -45.85945129 87.20773315 C-47.40089318 87.21748074 -48.94233263 87.22762014 -50.4837696 87.23811734 C-54.71700902 87.26558009 -58.95025964 87.2867198 -63.18354046 87.30663323 C-66.81500391 87.32446195 -70.44644313 87.34586564 -74.07788757 87.36717294 C-108.49060854 87.56800381 -142.90393208 87.67195182 -177.31711292 87.75568962 C-181.79417281 87.76677752 -186.27123212 87.77806989 -190.74829102 87.78955078 C-191.86102714 87.79239532 -192.97376326 87.79523985 -194.12021866 87.79817058 C-212.15566705 87.84567578 -230.19053076 87.94201371 -248.22566048 88.05712186 C-266.74338803 88.17432986 -285.2608112 88.24235136 -303.77890033 88.26382077 C-314.17593662 88.27722649 -324.57188182 88.31301143 -334.96854591 88.405056 C-343.82034581 88.48341306 -352.67092695 88.51798713 -361.5230687 88.4950311 C-366.03957297 88.48471424 -370.55342948 88.49549233 -375.06949615 88.56312943 C-379.20686023 88.62461889 -383.33975489 88.62576568 -387.47727641 88.57947291 C-388.97126982 88.57329677 -390.46555282 88.58901451 -391.95901952 88.62916015 C-396.59375226 88.74633468 -400.62655927 88.59525773 -405 87 C-408.95122166 83.07418099 -411.40880525 78.94345172 -414 74 C-415.03546786 72.20906239 -416.07171242 70.41857314 -417.109375 68.62890625 C-418.00116138 66.94618933 -418.8814612 65.25733319 -419.75 63.5625 C-420.21317627 62.66797119 -420.67635254 61.77344238 -421.15356445 60.85180664 C-430 43.44188392 -430 43.44188392 -430 35 C-429.1762357 34.99978263 -428.3524714 34.99956526 -427.50374454 34.99934131 C-378.65262944 34.98581784 -329.80159408 34.94629938 -280.95052999 34.87314438 C-275.08152222 34.8643779 -269.21251415 34.85582804 -263.34350586 34.84741211 C-262.17511953 34.84573305 -261.00673319 34.84405398 -259.80294121 34.84232404 C-240.89848032 34.81567312 -221.99404975 34.80656033 -203.089572 34.80395857 C-183.68375428 34.80089632 -164.27802406 34.77891811 -144.87224585 34.73947543 C-132.90322378 34.71574144 -120.93437652 34.70666334 -108.96533418 34.71648689 C-100.75147671 34.72181326 -92.5377755 34.70872267 -84.3239625 34.6813371 C-79.5889429 34.66608815 -74.85427318 34.65877964 -70.11924362 34.67340279 C-65.77526586 34.68663808 -61.43196336 34.67649661 -57.08806104 34.64856227 C-55.52523 34.64249557 -53.96233802 34.64465766 -52.39953911 34.65637074 C-37.28091858 34.76072393 -23.36997517 31.71401506 -12 21 C-6.07254319 14.3115859 -3.40666957 8.51667393 0 0 Z " fill="#FEFEFE" transform="translate(468,560)"/>
<path d="M0 0 C7.79373563 4.18789073 12.73653852 9.37263704 16.05630493 17.62615967 C17.16063162 21.57428026 17.29538941 25.26156004 17.29052734 29.32519531 C17.29724457 30.13906204 17.30396179 30.95292877 17.31088257 31.79145813 C17.32981163 34.47040997 17.33378443 37.14911052 17.3359375 39.828125 C17.34236987 41.70131531 17.34909855 43.57450463 17.35610962 45.44769287 C17.36807032 49.37156501 17.37179178 53.2953492 17.37060547 57.21923828 C17.37040256 62.2269561 17.39768124 67.23410464 17.43214989 72.24168777 C17.45448063 76.11094713 17.45844109 79.98007094 17.45738602 83.84938812 C17.45973358 85.69442452 17.46850912 87.53946513 17.48405075 89.38443756 C17.56836724 100.42937866 17.34569258 109.25668393 11.1875 118.8125 C4.91014394 125.08985606 -1.32308428 128.27962379 -10.375 128.3125 C-19.26394214 128.13088711 -24.698213 126.02446793 -31.23828125 119.97265625 C-37.74653233 112.68514673 -38 105.70990704 -38 96 C-69.68 96 -101.36 96 -134 96 C-134 78.51 -134 61.02 -134 43 C-102.32 43 -70.64 43 -38 43 C-38 35.08 -38 27.16 -38 19 C-34.26387866 9.03700975 -30.42950043 3.8655418 -21 -1 C-14.54850138 -3.15049954 -6.13276622 -2.99824126 0 0 Z " fill="#FDFEFD" transform="translate(331,97)"/>
<path d="M0 0 C7.33905651 4.10834533 11.21289066 9.19644383 14.34121704 16.96014404 C15.42422681 20.87783873 15.54925563 24.55673344 15.54443359 28.58691406 C15.55115082 29.40078079 15.55786804 30.21464752 15.56478882 31.05317688 C15.58371788 33.73212872 15.58769068 36.41082927 15.58984375 39.08984375 C15.59627612 40.96303406 15.6030048 42.83622338 15.61001587 44.70941162 C15.62197657 48.63328376 15.62569803 52.55706795 15.62451172 56.48095703 C15.62430881 61.48867485 15.65158749 66.49582339 15.68605614 71.50340652 C15.70838688 75.37266588 15.71234734 79.24178969 15.71129227 83.11110687 C15.71363983 84.95614327 15.72241537 86.80118388 15.737957 88.64615631 C15.82227349 99.69109741 15.59959883 108.51840268 9.44140625 118.07421875 C3.16405019 124.35157481 -3.06917803 127.54134254 -12.12109375 127.57421875 C-21.01003589 127.39260586 -26.44430675 125.28618668 -32.984375 119.234375 C-39.49262608 111.94686548 -39.74609375 104.97162579 -39.74609375 95.26171875 C-66.47609375 95.26171875 -93.20609375 95.26171875 -120.74609375 95.26171875 C-120.74609375 76.3798413 -120.2247222 60.17623253 -115.74609375 42.26171875 C-90.66609375 42.26171875 -65.58609375 42.26171875 -39.74609375 42.26171875 C-39.74609375 34.34171875 -39.74609375 26.42171875 -39.74609375 18.26171875 C-36.00997241 8.2987285 -32.17559418 3.12726055 -22.74609375 -1.73828125 C-15.18223743 -4.25956669 -7.16019738 -3.27553171 0 0 Z " fill="#FDFEFD" transform="translate(152.74609375,97.73828125)"/>
</svg>
